<svg xmlns="http://www.w3.org/2000/svg" viewBox="0 0 220 64" aria-labelledby="fuVaLogoTitle" role="img">
  <title id="fuVaLogoTitle">FU-VA Logo</title>

  <!-- Headset outline -->
  <path
    d="M10 18 C10 8 18 4 28 4 H38 C49 4 56 11 56 22 V26 C56 37 49 44 38 44 H26 C20 44 16 47 16 52 V58 H24"
    fill="none"
    stroke="#FFFFFF"
    stroke-width="3"
    stroke-linecap="round"
    stroke-linejoin="round"
  />

  <!-- Earcup -->
  <circle cx="56" cy="26" r="4" fill="#FFFFFF" />

  <!-- Mic Arm -->
  <path
    d="M28 52 H42 C44.5 52 46.5 54 46.5 56.5 C46.5 59 44.5 61 42 61 H38"
    fill="none"
    stroke="#FFFFFF"
    stroke-width="3"
    stroke-linecap="round"
  />

  <!-- House (dark, visible on red) -->
  <polygon
    points="30,15 18,26 18,42 42,42 42,26"
    fill="#111111"
    stroke="#FFFFFF"
    stroke-width="2.4"
    stroke-linejoin="round"
  />

  <!-- Windows -->
  <rect x="26.5" y="29" width="3" height="3" fill="#FFFFFF"/>
  <rect x="31.5" y="29" width="3" height="3" fill="#FFFFFF"/>
  <rect x="26.5" y="34" width="3" height="3" fill="#FFFFFF"/>
  <rect x="31.5" y="34" width="3" height="3" fill="#FFFFFF"/>

  <!-- Text -->
  <text
    x="60"
    y="41"
    fill="#FFFFFF"
    font-family="system-ui, -apple-system, BlinkMacSystemFont, 'Segoe UI', sans-serif"
    font-size="28"
    font-weight="700"
    letter-spacing="0.5"
  >
    FU-VA
  </text>
</svg>
